<svg version="1.1" id="Layer_1" xmlns="http://www.w3.org/2000/svg" xmlns:xlink="http://www.w3.org/1999/xlink" x="0px" y="0px"
	 width="100%" viewBox="0 0 2912 1472" enable-background="new 0 0 2912 1472" xml:space="preserve">
<path fill="#FEFEFE" opacity="1.000000" stroke="none" 
	d="
M1.999997,590.000000 
	C2.000000,394.019104 2.000000,198.038208 2.000000,2.028651 
	C972.552979,2.028651 1943.105957,2.028651 2913.829590,2.028651 
	C2913.829590,492.505127 2913.829590,983.010315 2913.829590,1473.757812 
	C1943.333374,1473.757812 972.666687,1473.757812 2.000010,1473.763184 
	C2.000000,1290.453613 2.000000,1107.138672 2.595453,923.140259 
	C4.496105,925.066650 5.801303,927.676514 7.243750,930.892334 
	C7.466882,932.321899 7.552767,933.145386 7.271858,934.327393 
	C7.507467,936.555420 8.109869,938.424988 8.924658,940.892334 
	C9.296412,942.319458 9.455781,943.148743 9.248240,944.473389 
	C10.208869,948.821594 11.536407,952.674438 13.114794,957.075378 
	C13.565318,958.401123 13.764996,959.178711 13.662409,960.440552 
	C16.008841,966.059692 18.657536,971.194519 21.386791,976.415283 
	C21.467350,976.501160 21.536917,976.726135 21.543427,977.403442 
	C24.006184,981.587341 26.462431,985.093994 29.195494,988.948669 
	C29.472307,989.296753 29.917820,990.066650 29.970245,990.567261 
	C30.541401,991.449707 31.060133,991.831421 31.638058,992.256592 
	C31.697248,992.300049 31.742172,992.439880 31.792778,992.885315 
	C32.115967,993.940491 32.585373,994.268738 33.369041,994.418823 
	C33.486477,994.522217 33.635551,994.797302 33.671223,995.173279 
	C33.938545,996.068054 34.338329,996.333435 35.108189,996.520874 
	C35.310135,996.696289 35.604439,997.143066 35.627045,997.458496 
	C35.847664,998.203247 36.182732,998.428955 37.146355,998.954102 
	C40.952881,1002.789429 44.267895,1006.121765 47.657333,1009.727173 
	C47.975891,1010.351685 48.308193,1010.488098 48.991528,1010.590210 
	C49.254402,1010.770813 49.676361,1011.249207 49.777344,1011.581909 
	C50.199364,1012.326599 50.615490,1012.479126 51.289391,1012.467285 
	C51.452087,1012.562439 51.707550,1012.839600 51.841232,1013.250061 
	C52.375244,1014.158936 52.891117,1014.358337 53.604340,1014.291504 
	C53.686134,1014.324280 53.796417,1014.461670 53.951420,1014.925964 
	C54.548088,1015.959900 55.127205,1016.205383 56.309425,1016.460022 
	C57.061913,1017.045410 57.348747,1017.297363 57.756199,1017.829346 
	C57.876812,1018.109253 58.389881,1018.440369 58.389881,1018.440369 
	C58.389881,1018.440369 59.000210,1018.424316 59.191925,1018.532837 
	C59.383644,1018.641418 59.689610,1018.958557 59.851891,1019.357666 
	C60.440197,1020.219666 60.964481,1020.405762 62.152225,1020.701660 
	C77.553795,1031.198975 93.876930,1037.874878 111.620552,1040.121948 
	C127.767090,1042.166626 144.073578,1043.985352 160.317291,1044.053345 
	C249.935410,1044.428467 339.556061,1044.323853 429.175354,1044.139282 
	C441.800262,1044.113281 454.469330,1043.207031 467.037720,1041.922607 
	C521.408142,1036.366211 565.287781,1000.494751 579.286133,946.889221 
	C584.033569,928.709595 585.741455,910.176392 585.765442,891.477844 
	C585.885315,798.193665 586.110962,704.908630 585.765442,611.625793 
	C585.705322,595.383667 584.410034,578.902344 581.409790,562.959717 
	C571.494141,510.269836 540.944214,475.490936 488.431000,462.175781 
	C473.739807,458.450714 458.156769,456.770142 442.971771,456.704193 
	C344.027069,456.274231 245.078903,456.428711 146.132980,456.741364 
	C133.873657,456.780090 121.401161,457.794617 109.403336,460.217926 
	C59.487286,470.300049 25.357328,498.610138 11.072343,548.490234 
	C8.520873,557.399414 7.665040,566.784241 5.780337,575.898560 
	C4.796540,580.656128 3.277355,585.303101 1.999997,590.000000 
M799.553711,862.999695 
	C799.553711,902.203491 799.553711,941.407288 799.553711,980.924377 
	C829.611572,980.924377 858.435791,980.924377 888.031006,980.924377 
	C888.031006,955.773010 888.031067,931.172119 888.031067,906.571167 
	C888.031067,882.020020 888.031006,857.468811 888.031006,832.132507 
	C891.726013,832.132507 894.317932,832.132629 896.909851,832.132568 
	C925.908813,832.131470 954.909424,832.305725 983.905884,832.035034 
	C994.204407,831.938965 1004.607178,831.505127 1014.765259,829.943359 
	C1051.769897,824.253967 1082.959595,807.571289 1106.529541,778.198669 
	C1132.043579,746.403381 1140.647339,709.797607 1136.473022,669.494202 
	C1130.445801,611.301025 1092.827026,565.982361 1036.544556,550.106079 
	C1018.426636,544.995483 999.929565,543.301025 981.187195,543.312195 
	C923.522888,543.346558 865.858582,543.306396 808.194275,543.323303 
	C805.594360,543.324036 802.994568,543.598938 799.556580,543.793640 
	C799.556580,649.779175 799.556580,755.389404 799.553711,862.999695 
M2586.981934,669.616699 
	C2568.405029,669.616699 2549.827881,669.616699 2530.060547,669.616699 
	C2530.060547,681.237000 2530.060547,692.016663 2530.060547,702.506104 
	C2528.564453,702.801819 2528.122070,703.011536 2528.003662,702.894348 
	C2526.122070,701.031921 2524.208252,699.193909 2522.444336,697.222534 
	C2508.955811,682.147522 2492.240234,672.277100 2472.894287,666.845581 
	C2415.338623,650.686707 2349.258057,673.692932 2313.496094,721.784119 
	C2285.878662,758.922668 2276.233398,800.630554 2280.392090,846.148865 
	C2283.730713,882.690674 2298.425537,914.297302 2323.397705,940.696167 
	C2356.184570,975.356262 2396.807617,991.610046 2444.697998,988.049988 
	C2476.065918,985.718201 2503.487549,974.451477 2524.911865,950.568481 
	C2526.252686,949.073792 2527.904053,947.857910 2530.833008,945.242249 
	C2530.833008,958.389343 2530.833008,969.578491 2530.833008,980.756897 
	C2558.781982,980.756897 2585.891602,980.756897 2613.173340,980.756897 
	C2613.173340,876.860107 2613.173340,773.716553 2613.173340,670.791748 
	C2612.107422,670.309387 2611.530518,669.826477 2610.946045,669.817688 
	C2603.622559,669.707947 2596.298340,669.666809 2586.981934,669.616699 
M1934.267822,959.261169 
	C1992.482178,916.197571 2015.069580,858.657776 1999.548950,788.314514 
	C1984.854248,721.714600 1941.468994,681.665039 1875.516113,665.860474 
	C1852.207764,660.274963 1828.517334,660.048401 1805.012451,664.113647 
	C1753.464600,673.028870 1713.645874,699.523865 1687.550293,745.284668 
	C1669.958862,776.132812 1664.797974,809.671753 1668.230713,844.687378 
	C1672.367676,886.884705 1691.273071,921.405090 1723.466431,948.677185 
	C1748.765747,970.109070 1777.975464,983.039062 1810.938477,987.016541 
	C1854.758789,992.304199 1895.842896,984.786987 1934.267822,959.261169 
M1539.187866,949.897217 
	C1545.426758,958.942200 1551.730957,967.943237 1557.867554,977.057068 
	C1559.885620,980.054077 1562.162964,981.588806 1566.008057,981.563538 
	C1595.991821,981.365906 1625.976929,981.375122 1655.961426,981.275085 
	C1656.474121,981.273376 1656.984863,980.704834 1658.617310,979.734863 
	C1619.825806,926.928406 1581.105103,874.218445 1542.117065,821.144409 
	C1560.693115,795.738342 1578.983276,770.778259 1597.213745,745.774658 
	C1615.498169,720.697266 1634.588501,696.197815 1653.395630,669.862305 
	C1619.908691,669.862305 1588.302612,669.862305 1555.956909,669.862305 
	C1534.347290,699.902344 1512.522583,730.241272 1490.068481,761.455139 
	C1467.887085,730.003052 1446.627686,699.858337 1425.669678,670.141113 
	C1392.767090,670.141113 1360.624512,670.141113 1326.938843,670.141113 
	C1364.528198,721.192200 1401.311646,771.148987 1438.218384,821.273071 
	C1399.105469,874.515686 1360.611572,927.277771 1321.511475,981.517944 
	C1352.466431,981.517944 1381.413208,981.272278 1410.349976,981.705261 
	C1416.900635,981.803284 1420.539673,979.586121 1424.111084,974.409119 
	C1443.774902,945.904541 1463.779907,917.635254 1483.685913,889.297913 
	C1485.541016,886.657104 1487.522827,884.105347 1490.231934,880.452332 
	C1506.641235,903.772705 1522.471191,926.269653 1539.187866,949.897217 
M2148.384521,853.009827 
	C2148.392334,846.015137 2147.810547,838.958923 2148.531738,832.038574 
	C2150.011230,817.847107 2150.758057,803.348389 2154.392090,789.662720 
	C2160.973389,764.875977 2177.806396,749.089539 2202.773438,742.781250 
	C2215.779541,739.495056 2229.115234,739.095398 2242.453857,741.101074 
	C2245.691406,741.587830 2248.944580,741.971191 2253.008789,742.510803 
	C2254.462158,716.407043 2255.877441,690.983887 2257.308105,665.284973 
	C2243.846436,660.316650 2230.833252,661.124573 2218.090576,662.893005 
	C2188.183838,667.043335 2163.884033,681.098999 2146.973145,707.187256 
	C2146.285645,706.803467 2145.598145,706.419678 2144.910645,706.035950 
	C2144.910645,694.046387 2144.910645,682.056824 2144.910645,670.086182 
	C2117.048828,670.086182 2090.530273,670.086182 2063.951172,670.086182 
	C2063.951172,774.056458 2063.951172,877.489014 2063.951172,981.027100 
	C2092.182373,981.027100 2119.735352,981.027100 2148.386230,981.027100 
	C2148.386230,938.723389 2148.386230,896.864746 2148.384521,853.009827 
M1194.540283,838.999695 
	C1194.540283,886.178040 1194.540283,933.356384 1194.540283,980.835449 
	C1223.168213,980.835449 1250.557983,980.835449 1277.910400,980.835449 
	C1277.910400,876.825745 1277.910400,773.466858 1277.910400,670.411316 
	C1249.799316,670.411316 1222.384644,670.411316 1194.542480,670.411316 
	C1194.542480,726.500854 1194.542480,781.750244 1194.540283,838.999695 
M1217.957642,629.367798 
	C1219.849976,629.999817 1221.714111,630.738892 1223.639038,631.247498 
	C1245.443359,637.008301 1267.669189,628.808960 1280.704468,610.232422 
	C1292.238281,593.795593 1292.154419,569.485229 1280.507080,552.949829 
	C1267.828491,534.950623 1245.750854,526.992310 1224.030884,532.591980 
	C1203.770142,537.815430 1188.542114,555.617493 1186.664185,577.008057 
	C1184.975586,596.243286 1194.005493,619.271484 1217.957642,629.367798 
z"/>
<path fill="#037EFD" opacity="1.000000" stroke="none" 
	d="
M13.964678,959.956360 
	C13.764996,959.178711 13.565318,958.401123 13.273041,956.339233 
	C11.992004,951.362671 10.803568,947.670410 9.615141,943.978088 
	C9.455781,943.148743 9.296412,942.319458 9.214649,940.257568 
	C8.741054,937.339722 8.189854,935.654297 7.638652,933.968933 
	C7.552767,933.145386 7.466882,932.321899 7.493606,930.047119 
	C6.851216,920.097839 6.316539,911.571411 5.226443,903.116577 
	C4.823448,899.991028 3.113742,897.033936 2.000001,894.000000 
	C2.000000,793.291565 2.000000,692.583069 1.999997,590.937317 
	C3.277355,585.303101 4.796540,580.656128 5.780337,575.898560 
	C7.665040,566.784241 8.520873,557.399414 11.072343,548.490234 
	C25.357328,498.610138 59.487286,470.300049 109.403336,460.217926 
	C121.401161,457.794617 133.873657,456.780090 146.132980,456.741364 
	C245.078903,456.428711 344.027069,456.274231 442.971771,456.704193 
	C458.156769,456.770142 473.739807,458.450714 488.431000,462.175781 
	C540.944214,475.490936 571.494141,510.269836 581.409790,562.959717 
	C584.410034,578.902344 585.705322,595.383667 585.765442,611.625793 
	C586.110962,704.908630 585.885315,798.193665 585.765442,891.477844 
	C585.741455,910.176392 584.033569,928.709595 579.286133,946.889221 
	C565.287781,1000.494751 521.408142,1036.366211 467.037720,1041.922607 
	C454.469330,1043.207031 441.800262,1044.113281 429.175354,1044.139282 
	C339.556061,1044.323853 249.935410,1044.428467 160.317291,1044.053345 
	C144.073578,1043.985352 127.767090,1042.166626 111.620552,1040.121948 
	C93.876930,1037.874878 77.553795,1031.198975 62.018749,1020.266724 
	C60.894661,1018.887451 60.351173,1018.725220 59.689610,1018.958557 
	C59.689610,1018.958557 59.383644,1018.641418 59.173515,1018.151733 
	C58.562431,1017.139221 58.119831,1017.101685 57.635586,1017.549377 
	C57.348747,1017.297363 57.061913,1017.045410 56.156776,1015.986938 
	C55.115841,1014.557800 54.535152,1014.318176 53.796417,1014.461670 
	C53.796417,1014.461670 53.686134,1014.324280 53.501091,1013.851074 
	C52.910954,1012.807129 52.374790,1012.627686 51.707550,1012.839600 
	C51.707550,1012.839600 51.452087,1012.562439 51.266434,1012.068665 
	C50.714382,1011.028931 50.246239,1010.920349 49.676361,1011.249207 
	C49.676361,1011.249207 49.254402,1010.770813 49.049709,1010.224121 
	C48.510052,1009.122070 48.089340,1009.047668 47.582901,1009.454102 
	C44.267895,1006.121765 40.952881,1002.789429 37.248024,998.581543 
	C36.628132,997.100647 36.210217,996.913086 35.604439,997.143066 
	C35.604439,997.143066 35.310135,996.696289 35.148331,996.109497 
	C34.729439,994.921570 34.279114,994.679810 33.635551,994.797302 
	C33.635551,994.797302 33.486477,994.522217 33.357967,993.955078 
	C32.938904,992.750183 32.443142,992.434143 31.742172,992.439880 
	C31.742172,992.439880 31.697248,992.300049 31.600243,991.752930 
	C30.974762,990.826111 30.446289,990.446411 29.917818,990.066650 
	C29.917820,990.066650 29.472307,989.296753 29.156713,988.288086 
	C26.406380,983.761719 23.971638,980.243958 21.536907,976.726135 
	C21.536917,976.726135 21.467350,976.501160 21.420769,975.704956 
	C18.904354,969.924622 16.434519,964.940491 13.964678,959.956360 
M306.364044,650.289062 
	C297.382629,650.342896 288.268799,649.414612 279.440643,650.605042 
	C204.513580,660.709167 159.093491,726.898865 165.540787,792.898132 
	C173.548340,874.869446 250.699188,928.594910 330.276886,906.600464 
	C405.010529,885.944824 450.538513,796.593811 407.791168,717.333923 
	C386.655609,678.145386 352.612244,656.042725 306.364044,650.289062 
M477.279022,630.205383 
	C478.803070,628.028198 480.504120,625.952698 481.823456,623.657837 
	C493.462311,603.413757 487.790527,576.418091 469.121674,562.896606 
	C449.569519,548.735413 421.192932,551.765503 405.672302,569.671814 
	C390.041412,587.705322 390.801849,614.986267 406.957520,632.569580 
	C422.413727,649.391541 456.038086,654.233337 477.279022,630.205383 
z"/>
<path fill="#8ED1ED" opacity="1.000000" stroke="none" 
	d="
M2.000001,894.929321 
	C3.113742,897.033936 4.823448,899.991028 5.226443,903.116577 
	C6.316539,911.571411 6.851216,920.097839 7.356358,929.441101 
	C5.801303,927.676514 4.496105,925.066650 2.595453,922.228394 
	C2.000000,913.286194 2.000000,904.572388 2.000001,894.929321 
z"/>
<path fill="#020202" opacity="1.000000" stroke="none" 
	d="
M799.555176,861.999634 
	C799.556580,755.389404 799.556580,649.779175 799.556580,543.793640 
	C802.994568,543.598938 805.594360,543.324036 808.194275,543.323303 
	C865.858582,543.306396 923.522888,543.346558 981.187195,543.312195 
	C999.929565,543.301025 1018.426636,544.995483 1036.544556,550.106079 
	C1092.827026,565.982361 1130.445801,611.301025 1136.473022,669.494202 
	C1140.647339,709.797607 1132.043579,746.403381 1106.529541,778.198669 
	C1082.959595,807.571289 1051.769897,824.253967 1014.765259,829.943359 
	C1004.607178,831.505127 994.204407,831.938965 983.905884,832.035034 
	C954.909424,832.305725 925.908813,832.131470 896.909851,832.132568 
	C894.317932,832.132629 891.726013,832.132507 888.031006,832.132507 
	C888.031006,857.468811 888.031067,882.020020 888.031067,906.571167 
	C888.031067,931.172119 888.031006,955.773010 888.031006,980.924377 
	C858.435791,980.924377 829.611572,980.924377 799.553711,980.924377 
	C799.553711,941.407288 799.553711,902.203491 799.555176,861.999634 
M1049.097534,681.847168 
	C1047.725342,666.125000 1042.494507,652.014648 1031.564087,640.350220 
	C1017.279602,625.106689 999.351501,618.403748 978.767456,618.317749 
	C950.783936,618.200806 922.799683,618.233276 894.815796,618.268860 
	C892.623535,618.271606 890.431885,618.800171 888.705811,619.023987 
	C888.705811,665.200928 888.705811,710.665405 888.705811,756.488098 
	C919.090759,756.488098 948.732178,756.574951 978.372864,756.467529 
	C1021.613159,756.310852 1049.960327,727.085083 1049.097534,681.847168 
z"/>
<path fill="#030303" opacity="1.000000" stroke="none" 
	d="
M2587.978027,669.612427 
	C2596.298340,669.666809 2603.622559,669.707947 2610.946045,669.817688 
	C2611.530518,669.826477 2612.107422,670.309387 2613.173340,670.791748 
	C2613.173340,773.716553 2613.173340,876.860107 2613.173340,980.756897 
	C2585.891602,980.756897 2558.781982,980.756897 2530.833008,980.756897 
	C2530.833008,969.578491 2530.833008,958.389343 2530.833008,945.242249 
	C2527.904053,947.857910 2526.252686,949.073792 2524.911865,950.568481 
	C2503.487549,974.451477 2476.065918,985.718201 2444.697998,988.049988 
	C2396.807617,991.610046 2356.184570,975.356262 2323.397705,940.696167 
	C2298.425537,914.297302 2283.730713,882.690674 2280.392090,846.148865 
	C2276.233398,800.630554 2285.878662,758.922668 2313.496094,721.784119 
	C2349.258057,673.692932 2415.338623,650.686707 2472.894287,666.845581 
	C2492.240234,672.277100 2508.955811,682.147522 2522.444336,697.222534 
	C2524.208252,699.193909 2526.122070,701.031921 2528.003662,702.894348 
	C2528.122070,703.011536 2528.564453,702.801819 2530.060547,702.506104 
	C2530.060547,692.016663 2530.060547,681.237000 2530.060547,669.616699 
	C2549.827881,669.616699 2568.405029,669.616699 2587.978027,669.612427 
M2397.025879,753.880066 
	C2373.354980,774.439148 2361.784180,800.463257 2364.223145,831.666565 
	C2368.550537,887.031982 2410.048584,915.945740 2453.665283,911.929993 
	C2487.779297,908.789124 2512.249512,892.114014 2524.647949,859.337402 
	C2530.308838,844.372375 2532.074219,828.815063 2529.910889,813.183228 
	C2525.035889,777.956970 2506.900879,752.421631 2472.270752,741.238953 
	C2445.972900,732.747009 2421.031982,737.505371 2397.025879,753.880066 
z"/>
<path fill="#030303" opacity="1.000000" stroke="none" 
	d="
M1933.680664,959.672241 
	C1895.842896,984.786987 1854.758789,992.304199 1810.938477,987.016541 
	C1777.975464,983.039062 1748.765747,970.109070 1723.466431,948.677185 
	C1691.273071,921.405090 1672.367676,886.884705 1668.230713,844.687378 
	C1664.797974,809.671753 1669.958862,776.132812 1687.550293,745.284668 
	C1713.645874,699.523865 1753.464600,673.028870 1805.012451,664.113647 
	C1828.517334,660.048401 1852.207764,660.274963 1875.516113,665.860474 
	C1941.468994,681.665039 1984.854248,721.714600 1999.548950,788.314514 
	C2015.069580,858.657776 1992.482178,916.197571 1933.680664,959.672241 
M1887.950439,895.050659 
	C1903.507690,882.401794 1913.630371,866.359802 1917.446533,846.640198 
	C1920.056763,833.151855 1920.824341,819.498047 1917.871948,805.945007 
	C1911.072998,774.734009 1893.933838,751.571777 1862.895874,741.806030 
	C1831.451294,731.912231 1801.924561,737.122498 1777.719971,760.610535 
	C1742.632935,794.658325 1747.020142,846.281860 1765.410889,874.729980 
	C1791.279419,914.745117 1846.152344,924.394226 1887.950439,895.050659 
z"/>
<path fill="#030303" opacity="1.000000" stroke="none" 
	d="
M1538.744385,949.331909 
	C1522.471191,926.269653 1506.641235,903.772705 1490.231934,880.452332 
	C1487.522827,884.105347 1485.541016,886.657104 1483.685913,889.297913 
	C1463.779907,917.635254 1443.774902,945.904541 1424.111084,974.409119 
	C1420.539673,979.586121 1416.900635,981.803284 1410.349976,981.705261 
	C1381.413208,981.272278 1352.466431,981.517944 1321.511475,981.517944 
	C1360.611572,927.277771 1399.105469,874.515686 1438.218384,821.273071 
	C1401.311646,771.148987 1364.528198,721.192200 1326.938843,670.141113 
	C1360.624512,670.141113 1392.767090,670.141113 1425.669678,670.141113 
	C1446.627686,699.858337 1467.887085,730.003052 1490.068481,761.455139 
	C1512.522583,730.241272 1534.347290,699.902344 1555.956909,669.862305 
	C1588.302612,669.862305 1619.908691,669.862305 1653.395630,669.862305 
	C1634.588501,696.197815 1615.498169,720.697266 1597.213745,745.774658 
	C1578.983276,770.778259 1560.693115,795.738342 1542.117065,821.144409 
	C1581.105103,874.218445 1619.825806,926.928406 1658.617310,979.734863 
	C1656.984863,980.704834 1656.474121,981.273376 1655.961426,981.275085 
	C1625.976929,981.375122 1595.991821,981.365906 1566.008057,981.563538 
	C1562.162964,981.588806 1559.885620,980.054077 1557.867554,977.057068 
	C1551.730957,967.943237 1545.426758,958.942200 1538.744385,949.331909 
z"/>
<path fill="#020202" opacity="1.000000" stroke="none" 
	d="
M2148.385254,854.007935 
	C2148.386230,896.864746 2148.386230,938.723389 2148.386230,981.027100 
	C2119.735352,981.027100 2092.182373,981.027100 2063.951172,981.027100 
	C2063.951172,877.489014 2063.951172,774.056458 2063.951172,670.086182 
	C2090.530273,670.086182 2117.048828,670.086182 2144.910645,670.086182 
	C2144.910645,682.056824 2144.910645,694.046387 2144.910645,706.035950 
	C2145.598145,706.419678 2146.285645,706.803467 2146.973145,707.187256 
	C2163.884033,681.098999 2188.183838,667.043335 2218.090576,662.893005 
	C2230.833252,661.124573 2243.846436,660.316650 2257.308105,665.284973 
	C2255.877441,690.983887 2254.462158,716.407043 2253.008789,742.510803 
	C2248.944580,741.971191 2245.691406,741.587830 2242.453857,741.101074 
	C2229.115234,739.095398 2215.779541,739.495056 2202.773438,742.781250 
	C2177.806396,749.089539 2160.973389,764.875977 2154.392090,789.662720 
	C2150.758057,803.348389 2150.011230,817.847107 2148.531738,832.038574 
	C2147.810547,838.958923 2148.392334,846.015137 2148.385254,854.007935 
z"/>
<path fill="#030303" opacity="1.000000" stroke="none" 
	d="
M1194.541382,837.999634 
	C1194.542480,781.750244 1194.542480,726.500854 1194.542480,670.411316 
	C1222.384644,670.411316 1249.799316,670.411316 1277.910400,670.411316 
	C1277.910400,773.466858 1277.910400,876.825745 1277.910400,980.835449 
	C1250.557983,980.835449 1223.168213,980.835449 1194.540283,980.835449 
	C1194.540283,933.356384 1194.540283,886.178040 1194.541382,837.999634 
z"/>
<path fill="#040404" opacity="1.000000" stroke="none" 
	d="
M1217.277100,629.014709 
	C1194.005493,619.271484 1184.975586,596.243286 1186.664185,577.008057 
	C1188.542114,555.617493 1203.770142,537.815430 1224.030884,532.591980 
	C1245.750854,526.992310 1267.828491,534.950623 1280.507080,552.949829 
	C1292.154419,569.485229 1292.238281,593.795593 1280.704468,610.232422 
	C1267.669189,628.808960 1245.443359,637.008301 1223.639038,631.247498 
	C1221.714111,630.738892 1219.849976,629.999817 1217.277100,629.014709 
z"/>
<path fill="#8ED1ED" opacity="1.000000" stroke="none" 
	d="
M13.662415,960.440552 
	C16.434519,964.940491 18.904354,969.924622 21.340210,975.619080 
	C18.657536,971.194519 16.008841,966.059692 13.662415,960.440552 
z"/>
<path fill="#8ED1ED" opacity="1.000000" stroke="none" 
	d="
M9.248231,944.473389 
	C10.803568,947.670410 11.992004,951.362671 13.022194,955.791138 
	C11.536407,952.674438 10.208869,948.821594 9.248231,944.473389 
z"/>
<path fill="#8ED1ED" opacity="1.000000" stroke="none" 
	d="
M21.543415,977.403442 
	C23.971638,980.243958 26.406380,983.761719 28.879900,987.940063 
	C26.462431,985.093994 24.006184,981.587341 21.543415,977.403442 
z"/>
<path fill="#8ED1ED" opacity="1.000000" stroke="none" 
	d="
M7.271859,934.327393 
	C8.189854,935.654297 8.741054,937.339722 9.002263,939.659790 
	C8.109869,938.424988 7.507467,936.555420 7.271859,934.327393 
z"/>
<path fill="#8ED1ED" opacity="1.000000" stroke="none" 
	d="
M29.970243,990.567261 
	C30.446289,990.446411 30.974762,990.826111 31.541050,991.709534 
	C31.060133,991.831421 30.541401,991.449707 29.970243,990.567261 
z"/>
<path fill="#8ED1ED" opacity="1.000000" stroke="none" 
	d="
M31.792778,992.885315 
	C32.443142,992.434143 32.938904,992.750183 33.240532,993.851685 
	C32.585373,994.268738 32.115967,993.940491 31.792778,992.885315 
z"/>
<path fill="#8ED1ED" opacity="1.000000" stroke="none" 
	d="
M33.671223,995.173279 
	C34.279114,994.679810 34.729439,994.921570 34.946384,995.934021 
	C34.338329,996.333435 33.938545,996.068054 33.671223,995.173279 
z"/>
<path fill="#8ED1ED" opacity="1.000000" stroke="none" 
	d="
M35.627045,997.458496 
	C36.210217,996.913086 36.628132,997.100647 36.756516,998.078491 
	C36.182732,998.428955 35.847664,998.203247 35.627045,997.458496 
z"/>
<path fill="#8ED1ED" opacity="1.000000" stroke="none" 
	d="
M47.657318,1009.727173 
	C48.089340,1009.047668 48.510052,1009.122070 48.786835,1010.043457 
	C48.308193,1010.488098 47.975891,1010.351685 47.657318,1009.727173 
z"/>
<path fill="#8ED1ED" opacity="1.000000" stroke="none" 
	d="
M49.777344,1011.581909 
	C50.246239,1010.920349 50.714382,1011.028931 51.103741,1011.973511 
	C50.615490,1012.479126 50.199364,1012.326599 49.777344,1011.581909 
z"/>
<path fill="#8ED1ED" opacity="1.000000" stroke="none" 
	d="
M51.841232,1013.250061 
	C52.374790,1012.627686 52.910954,1012.807129 53.419292,1013.818359 
	C52.891117,1014.358337 52.375244,1014.158936 51.841232,1013.250061 
z"/>
<path fill="#8ED1ED" opacity="1.000000" stroke="none" 
	d="
M53.951420,1014.925964 
	C54.535152,1014.318176 55.115841,1014.557800 55.691124,1015.653564 
	C55.127205,1016.205383 54.548088,1015.959900 53.951420,1014.925964 
z"/>
<path fill="#8ED1ED" opacity="1.000000" stroke="none" 
	d="
M57.756199,1017.829346 
	C58.119831,1017.101685 58.562431,1017.139221 58.981796,1018.043152 
	C59.000210,1018.424316 58.389881,1018.440369 58.389881,1018.440369 
	C58.389881,1018.440369 57.876812,1018.109253 57.756199,1017.829346 
z"/>
<path fill="#8ED1ED" opacity="1.000000" stroke="none" 
	d="
M59.851891,1019.357666 
	C60.351173,1018.725220 60.894661,1018.887451 61.453552,1019.880188 
	C60.964481,1020.405762 60.440197,1020.219666 59.851891,1019.357666 
z"/>
<path fill="#FAFCFD" opacity="1.000000" stroke="none" 
	d="
M307.281372,650.364441 
	C352.612244,656.042725 386.655609,678.145386 407.791168,717.333923 
	C450.538513,796.593811 405.010529,885.944824 330.276886,906.600464 
	C250.699188,928.594910 173.548340,874.869446 165.540787,792.898132 
	C159.093491,726.898865 204.513580,660.709167 279.440643,650.605042 
	C288.268799,649.414612 297.382629,650.342896 307.281372,650.364441 
M235.331619,805.287109 
	C254.520844,853.009521 317.624725,856.957214 344.921967,820.661987 
	C365.048767,793.900879 362.619263,757.374939 338.079346,733.530579 
	C315.561859,711.651428 279.504181,710.674683 254.061264,730.770386 
	C234.164139,746.485657 224.045197,776.392456 235.331619,805.287109 
z"/>
<path fill="#F8FCFD" opacity="1.000000" stroke="none" 
	d="
M476.806580,630.748840 
	C456.038086,654.233337 422.413727,649.391541 406.957520,632.569580 
	C390.801849,614.986267 390.041412,587.705322 405.672302,569.671814 
	C421.192932,551.765503 449.569519,548.735413 469.121674,562.896606 
	C487.790527,576.418091 493.462311,603.413757 481.823456,623.657837 
	C480.504120,625.952698 478.803070,628.028198 476.806580,630.748840 
z"/>
<path fill="#FCFCFC" opacity="1.000000" stroke="none" 
	d="
M1049.171387,682.707886 
	C1049.960327,727.085083 1021.613159,756.310852 978.372864,756.467529 
	C948.732178,756.574951 919.090759,756.488098 888.705811,756.488098 
	C888.705811,710.665405 888.705811,665.200928 888.705811,619.023987 
	C890.431885,618.800171 892.623535,618.271606 894.815796,618.268860 
	C922.799683,618.233276 950.783936,618.200806 978.767456,618.317749 
	C999.351501,618.403748 1017.279602,625.106689 1031.564087,640.350220 
	C1042.494507,652.014648 1047.725342,666.125000 1049.171387,682.707886 
z"/>
<path fill="#FCFCFC" opacity="1.000000" stroke="none" 
	d="
M2397.590332,753.428284 
	C2421.031982,737.505371 2445.972900,732.747009 2472.270752,741.238953 
	C2506.900879,752.421631 2525.035889,777.956970 2529.910889,813.183228 
	C2532.074219,828.815063 2530.308838,844.372375 2524.647949,859.337402 
	C2512.249512,892.114014 2487.779297,908.789124 2453.665283,911.929993 
	C2410.048584,915.945740 2368.550537,887.031982 2364.223145,831.666565 
	C2361.784180,800.463257 2373.354980,774.439148 2397.590332,753.428284 
z"/>
<path fill="#FCFCFB" opacity="1.000000" stroke="none" 
	d="
M1887.390381,895.498535 
	C1846.152344,924.394226 1791.279419,914.745117 1765.410889,874.729980 
	C1747.020142,846.281860 1742.632935,794.658325 1777.719971,760.610535 
	C1801.924561,737.122498 1831.451294,731.912231 1862.895874,741.806030 
	C1893.933838,751.571777 1911.072998,774.734009 1917.871948,805.945007 
	C1920.824341,819.498047 1920.056763,833.151855 1917.446533,846.640198 
	C1913.630371,866.359802 1903.507690,882.401794 1887.390381,895.498535 
z"/>
<path fill="#057EFB" opacity="1.000000" stroke="none" 
	d="
M235.004913,804.574097 
	C224.045197,776.392456 234.164139,746.485657 254.061264,730.770386 
	C279.504181,710.674683 315.561859,711.651428 338.079346,733.530579 
	C362.619263,757.374939 365.048767,793.900879 344.921967,820.661987 
	C317.624725,856.957214 254.520844,853.009521 235.004913,804.574097 
z"/>
</svg>